<svg width="333" height="327" viewBox="0 0 333 327" fill="none" xmlns="http://www.w3.org/2000/svg">
<path d="M285.85 69.4848C276.861 50.3631 262.014 38.6599 241.115 32.7167L238.179 7.83513L221.578 9.79393L224.318 33.0167L217.678 33.8002C199.417 35.9549 185.259 44.3529 173.544 59.1901L167.686 66.6087L143.467 61.0572C138.291 59.986 133.115 58.9149 126.474 59.6984C116.514 60.8737 106.945 65.3665 99.4271 72.981C90.2495 80.7914 86.2478 89.6728 83.9063 98.3585C81.9562 110.362 83.1305 120.314 87.8208 131.534C94.1711 142.558 100.13 150.264 109.018 154.261C105.313 179.926 112.838 200.902 133.252 216.994C148.098 228.697 163.822 233.569 182.083 231.414C190.383 230.435 195.364 229.847 200.148 227.601C211.674 239.696 225.934 246.423 242.535 244.464C247.515 243.876 254.155 243.093 258.94 240.846C268.509 236.354 274.366 228.935 280.028 219.858C285.494 209.121 287.836 200.436 286.661 190.483C285.878 183.848 285.291 178.872 283.044 174.091L271.612 148.53L280.79 140.72C292.504 125.883 296.992 106.853 292.983 87.1436L314.564 84.5972L312.411 66.3507L285.85 69.4848ZM129.323 126.637C118.775 122.836 114.672 116.592 116.818 106.248C118.964 95.9037 125.213 91.8027 135.565 93.9449L191.036 107.582C166.041 123.986 146.511 129.654 129.323 126.637ZM244.869 207.187C235.3 211.68 228.268 209.146 222.114 199.781C215.176 183.781 216.148 163.484 226.297 135.377L252.285 184.448C256.975 195.668 254.438 202.695 244.869 207.187ZM254.417 116.922L241.325 91.5571L241.129 89.8983L235.561 85.5097L233.901 85.7056L206.166 78.887C212.219 73.1272 218.468 69.0261 226.768 68.0467C235.069 67.0673 243.76 69.4055 251.184 75.257C258.607 81.1086 262.71 87.3519 263.689 95.6457C260.956 101.014 258.614 109.699 254.417 116.922Z" fill="#4B392E"/>
<rect x="101.1" y="227" width="41" height="51.7931" transform="rotate(38.2995 101.1 227)" fill="#4B392E"/>
<rect x="38.9902" y="293" width="41" height="51.7931" transform="rotate(48.8338 38.9902 293)" fill="#4B392E"/>
</svg>
