<svg width="109" height="109" viewBox="0 0 109 109" fill="none" xmlns="http://www.w3.org/2000/svg">
<path d="M54.4993 59.0417C36.3327 59.0417 31.791 43.9043 31.791 36.3333V18.1667L43.1452 27.25L54.4993 13.625L65.8535 27.25L77.2077 18.1667V36.3333C77.2077 43.9043 72.666 59.0417 54.4993 59.0417ZM54.4993 59.0417V95.375M54.4993 95.375H59.041M54.4993 95.375H49.9577M59.041 95.375C84.4743 95.375 90.8327 74.179 90.8327 63.5833C65.3993 63.5833 59.041 84.7793 59.041 95.375ZM49.9577 95.375C24.5243 95.375 18.166 74.179 18.166 63.5833C43.5993 63.5833 49.9577 84.7793 49.9577 95.375Z" stroke="white" stroke-width="6" stroke-linecap="round" stroke-linejoin="round"/>
</svg>
