<svg width="393" height="108" viewBox="0 0 393 108" fill="none" xmlns="http://www.w3.org/2000/svg">
<g clip-path="url(#clip0_65_3)">
<path d="M414 -13H-11V196H414V-13Z" fill="#353F0D"/>
<path d="M-11 -127.176C1.98611 -123.241 44.4861 -108.34 66.9167 -103.567C89.3472 -98.7932 102.333 -102.277 123.583 -98.5352C144.833 -94.7938 170.806 -88.9883 194.417 -81.1185C218.028 -73.2487 239.278 -57.1222 265.25 -51.3166C291.222 -45.5111 325.458 -51.0586 350.25 -46.2852C375.042 -41.5117 403.375 -26.6108 414 -22.6759V196H-11V-127.176Z" fill="url(#paint0_linear_65_3)"/>
<path d="M-11 -102.305C1.98611 -100.296 44.4861 -95.3003 66.9167 -90.2498C89.3472 -85.1994 102.333 -78.0847 123.583 -72.0021C144.833 -65.9196 170.806 -61.9012 194.417 -53.7545C218.028 -45.6077 241.639 -31.2683 265.25 -23.1216C288.861 -14.9748 311.292 -9.92435 336.083 -4.87389C360.875 0.176575 401.014 5.17203 414 7.18121V196H-11V-102.305Z" fill="url(#paint1_linear_65_3)"/>
<path d="M-11 -58.082C-3.32639 -54.6651 18.5139 -43.3822 35.0417 -37.5804C51.5694 -31.7786 68.0972 -25.9768 88.1667 -23.2714C108.236 -20.5659 135.389 -24.053 155.458 -21.3475C175.528 -18.642 190.875 -11.8082 208.583 -7.03848C226.292 -2.2688 246.361 0.43668 261.708 7.27055C277.056 14.1044 282.958 29.1951 300.667 33.9648C318.375 38.7345 349.069 32.1511 367.958 35.8886C386.847 39.6262 406.326 52.9733 414 56.3903V196H-11V-58.082Z" fill="url(#paint2_linear_65_3)"/>
<path d="M-11 -52.563C4.34722 -47.5489 53.9306 -31.4747 81.0833 -22.4787C108.236 -13.4827 123.583 -4.48672 151.917 1.41298C180.25 7.31268 220.389 7.01979 251.083 12.9195C281.778 18.8192 308.931 27.8152 336.083 36.8112C363.236 45.8072 401.014 61.8814 414 66.8954V196H-11V-52.563Z" fill="url(#paint3_linear_65_3)"/>
<path d="M-11 -27.6919C0.299603 -25.761 37.7401 -21.0005 56.7976 -16.1067C75.8552 -11.2129 85.4683 -6.31903 103.345 1.6711C121.222 9.66123 143.821 23.844 164.06 31.8341C184.298 39.8242 202.175 43.686 224.774 49.6119C247.373 55.5378 277.056 61.4637 299.655 67.3897C322.254 73.3156 341.311 80.2736 360.369 85.1675C379.427 90.0613 405.062 94.8218 414 96.7527V196H-11V-27.6919Z" fill="url(#paint4_linear_65_3)"/>
<path d="M-11 -2.82092C-3.32639 0.907649 16.1528 13.1255 35.0417 19.5505C53.9306 25.9756 84.625 30.3364 102.333 35.7294C120.042 41.1223 125.944 48.5794 141.292 51.9082C156.639 55.2369 176.708 50.3089 194.417 55.7018C212.125 61.0948 227.472 76.8087 247.542 84.2659C267.611 91.723 294.764 97.116 314.833 100.445C334.903 103.773 351.431 99.8775 367.958 104.238C384.486 108.599 406.326 122.881 414 126.61V196H-11V-2.82092Z" fill="url(#paint5_linear_65_3)"/>
<path d="M-11 22.05C1.98611 25.4985 39.7639 34.8118 66.9167 42.7408C94.0694 50.6698 123.583 58.5989 151.917 69.6242C180.25 80.6495 206.222 99.9316 236.917 108.893C267.611 117.854 306.569 115.462 336.083 123.391C365.597 131.32 401.014 150.954 414 156.467V196H-11V22.05Z" fill="url(#paint6_linear_65_3)"/>
</g>
<defs>
<linearGradient id="paint0_linear_65_3" x1="201.5" y1="-127.176" x2="201.5" y2="196" gradientUnits="userSpaceOnUse">
<stop stop-color="#8A8A28"/>
<stop offset="1" stop-color="#061406"/>
</linearGradient>
<linearGradient id="paint1_linear_65_3" x1="201.5" y1="-102.305" x2="201.5" y2="196" gradientUnits="userSpaceOnUse">
<stop stop-color="#778A28"/>
<stop offset="1" stop-color="#061409"/>
</linearGradient>
<linearGradient id="paint2_linear_65_3" x1="201.5" y1="-58.082" x2="201.5" y2="196" gradientUnits="userSpaceOnUse">
<stop stop-color="#778A28"/>
<stop offset="1" stop-color="#061409"/>
</linearGradient>
<linearGradient id="paint3_linear_65_3" x1="201.5" y1="-52.563" x2="201.5" y2="196" gradientUnits="userSpaceOnUse">
<stop stop-color="#F2F2C0"/>
<stop offset="1" stop-color="#42D742"/>
</linearGradient>
<linearGradient id="paint4_linear_65_3" x1="201.5" y1="-27.6919" x2="201.5" y2="196" gradientUnits="userSpaceOnUse">
<stop stop-color="#F2E8C0"/>
<stop offset="1" stop-color="#5FD742"/>
</linearGradient>
<linearGradient id="paint5_linear_65_3" x1="201.5" y1="-2.82092" x2="201.5" y2="196" gradientUnits="userSpaceOnUse">
<stop stop-color="#F2F2C0"/>
<stop offset="1" stop-color="#42D742"/>
</linearGradient>
<linearGradient id="paint6_linear_65_3" x1="201.5" y1="22.05" x2="201.5" y2="196" gradientUnits="userSpaceOnUse">
<stop stop-color="#F2F2C0"/>
<stop offset="1" stop-color="#42D742"/>
</linearGradient>
<clipPath id="clip0_65_3">
<rect width="425" height="209" fill="white" transform="translate(-11 -13)"/>
</clipPath>
</defs>
</svg>
